<?xml version="1.0" encoding="UTF-8"?>
<svg width="24px" height="24px" viewBox="0 0 24 24" version="1.1" xmlns="http://www.w3.org/2000/svg" xmlns:xlink="http://www.w3.org/1999/xlink">
    <title>Guide Icon</title>
    <g id="Guide-Icon" stroke="none" stroke-width="1" fill="none" fill-rule="evenodd">
        <g id="􀫓" transform="translate(0, 2)" fill="#8E8E93" fill-rule="nonzero">
            <path d="M11.9956569,11.670201 C11.6176258,11.6758826 11.2299584,11.6293865 10.8326547,11.5307128 C10.4353511,11.432039 9.9997738,11.277814 9.52592291,11.0680379 L0.943675353,7.21736358 C0.635495838,7.0819812 0.401171734,6.88880608 0.24070304,6.63783822 C0.0802343467,6.38687036 0,6.11845815 0,5.83260158 C0,5.55029603 0.0802343467,5.28394784 0.24070304,5.03355702 C0.401171734,4.7831662 0.635495838,4.58974695 0.943675353,4.45329927 L9.52592291,0.602491748 C9.9997738,0.393780945 10.4353511,0.239844522 10.8326547,0.140682477 C11.2299584,0.0415204327 11.6176258,-0.00521977897 11.9956569,0.000461842195 C12.3747738,-0.00521977897 12.7629841,0.0415204327 13.1602877,0.140682477 C13.5575914,0.239844522 13.9931687,0.393780945 14.4670195,0.602491748 L23.0548317,4.45329927 C23.364097,4.58974695 23.5989414,4.7831662 23.7593648,5.03355702 C23.9197883,5.28394784 24,5.55029603 24,5.83260158 C24,6.11845815 23.9197883,6.38687036 23.7593648,6.63783822 C23.5989414,6.88880608 23.364097,7.0819812 23.0548317,7.21736358 L14.4670195,11.0680379 C13.9931687,11.277814 13.5575914,11.432039 13.1602877,11.5307128 C12.7629841,11.6293865 12.3747738,11.6758826 11.9956569,11.670201 Z M11.9956569,10.0220426 C12.2746109,10.0220426 12.5573652,9.98473477 12.8439197,9.9101191 C13.1304741,9.83550344 13.4553022,9.71736567 13.8184039,9.55570579 L21.5731542,6.09586483 C21.7110478,6.03496495 21.7799946,5.94721053 21.7799946,5.83260158 C21.7799946,5.72269772 21.7110478,5.6367632 21.5731542,5.57479802 L13.8184039,2.11482389 C13.4553022,1.95316402 13.1304741,1.83502625 12.8439197,1.76041058 C12.5573652,1.68579491 12.2746109,1.64848708 11.9956569,1.64848708 C11.7177886,1.64848708 11.4367761,1.68579491 11.1526194,1.76041058 C10.8684627,1.83502625 10.5442454,1.95316402 10.1799674,2.11482389 L2.42684582,5.57479802 C2.28904271,5.6367632 2.22014115,5.72269772 2.22014115,5.83260158 C2.22014115,5.94721053 2.28904271,6.03496495 2.42684582,6.09586483 L10.1799674,9.55570579 C10.5442454,9.71736567 10.8684627,9.83550344 11.1526194,9.9101191 C11.4367761,9.98473477 11.7177886,10.0220426 11.9956569,10.0220426 Z M3.41463084,12.1664995 L3.41463084,7.70727024 L5.06962541,7.70727024 L5.06962541,12.1664995 C5.06962541,12.5982139 5.23321571,13.013394 5.56039631,13.4120396 C5.88757691,13.8106852 6.35568223,14.1660972 6.96471227,14.4782757 C7.57374231,14.7904541 8.30422096,15.0376712 9.15614821,15.219927 C10.0080755,15.4021827 10.9545784,15.4933106 11.9956569,15.4933106 C13.0425262,15.4933106 13.9907483,15.4021827 14.840323,15.219927 C15.6898978,15.0376712 16.4192001,14.7904541 17.0282302,14.4782757 C17.6372602,14.1660972 18.1065644,13.8106852 18.4361428,13.4120396 C18.7657211,13.013394 18.9305103,12.5982139 18.9305103,12.1664995 L18.9305103,7.70727024 L20.5853692,7.70727024 L20.5853692,12.1664995 C20.5853692,12.8403043 20.3782799,13.4717188 19.9641015,14.0607431 C19.5499231,14.6497674 18.9634229,15.166795 18.204601,15.6118257 C17.445779,16.0568564 16.5403999,16.4042565 15.4884636,16.6540259 C14.4365273,16.9037953 13.2722584,17.02868 11.9956569,17.02868 C10.7201412,17.02868 9.55759139,16.9037953 8.5080076,16.6540259 C7.45842381,16.4042565 6.5530447,16.0568564 5.79187025,15.6118257 C5.0306958,15.166795 4.44419562,14.6497674 4.03236971,14.0607431 C3.62054379,13.4717188 3.41463084,12.8403043 3.41463084,12.1664995 Z M12.0256515,6.91348562 C11.6985613,6.91348562 11.3856994,6.86696735 11.0870657,6.7739308 C10.788432,6.68089425 10.5451276,6.55361262 10.3571526,6.39208591 C10.1691775,6.2305592 10.07519,6.04406442 10.07519,5.83260158 C10.07519,5.62575506 10.169449,5.44325518 10.3579669,5.28510192 C10.5464848,5.12694867 10.7900606,5.00250785 11.0886944,4.91177946 C11.3873281,4.82105108 11.6996471,4.77568688 12.0256515,4.77568688 C12.3553655,4.77568688 12.6683406,4.82078475 12.9645765,4.91098049 C13.2608125,5.00117622 13.5017418,5.12561704 13.6873643,5.28430295 C13.8729868,5.44298885 13.965798,5.62575506 13.965798,5.83260158 C13.965798,6.04406442 13.8729868,6.2305592 13.6873643,6.39208591 C13.5017418,6.55361262 13.2610613,6.68089425 12.965323,6.7739308 C12.6695847,6.86696735 12.3563608,6.91348562 12.0256515,6.91348562 Z M6.96267644,8.98217277 L5.68688925,8.31755625 L11.2759229,5.48145076 L11.8443268,6.47338192 L6.96267644,8.98217277 Z M5.68688925,17.3161789 L5.68688925,8.35390975 L6.96267644,8.98217277 L6.96267644,17.3176437 L5.68688925,17.3161789 Z M4.92576004,17.5177877 C4.92576004,17.1565608 5.03705212,16.866776 5.25963626,16.648433 C5.48222041,16.4300901 5.77759682,16.3209186 6.14576547,16.3209186 L6.49497828,16.3209186 C6.86323742,16.3209186 7.15863645,16.4300901 7.38117535,16.648433 C7.60371426,16.866776 7.71498371,17.1565608 7.71498371,17.5177877 L7.71498371,19.8029978 C7.71498371,20.1642246 7.60371426,20.4540317 7.38117535,20.672419 C7.15863645,20.8908063 6.86323742,21 6.49497828,21 L6.14576547,21 C5.77759682,21 5.48222041,20.8908063 5.25963626,20.672419 C5.03705212,20.4540317 4.92576004,20.1642246 4.92576004,19.8029978 L4.92576004,17.5177877 Z" id="Shape"></path>
        </g>
    </g>
</svg>