<?xml version="1.0" encoding="UTF-8"?>
<svg width="256px" height="256px" viewBox="0 0 256 256" version="1.1" xmlns="http://www.w3.org/2000/svg" xmlns:xlink="http://www.w3.org/1999/xlink">
    <title>Guide Icon</title>
    <g id="Guide-Icon" stroke="none" stroke-width="1" fill="none" fill-rule="evenodd">
        <g id="􀫓" transform="translate(41.6561, 65.9136)" fill="#8E8E93" fill-rule="nonzero">
            <path d="M86.3125,85.5844416 C83.5924479,85.6261083 80.8030599,85.2851252 77.9443359,84.5614924 C75.085612,83.8378596 71.9514974,82.7068375 68.5419922,81.168426 L6.79003906,52.9291682 C4.57259115,51.9363297 2.88655599,50.519663 1.73193359,48.6791682 C0.577311198,46.8386734 0,44.8702489 0,42.7738948 C0,40.7035823 0.577311198,38.7502945 1.73193359,36.9140315 C2.88655599,35.0777685 4.57259115,33.6593114 6.79003906,32.6586604 L68.5419922,4.41842602 C71.9514974,2.88782706 75.085612,1.75892081 77.9443359,1.03170727 C80.8030599,0.304493731 83.5924479,-0.0382797065 86.3125,0.0033869602 C89.0403646,-0.0382797065 91.8336589,0.304493731 94.6923828,1.03170727 C97.5511068,1.75892081 100.685221,2.88782706 104.094727,4.41842602 L165.886719,32.6586604 C168.111979,33.6593114 169.801758,35.0777685 170.956055,36.9140315 C172.110352,38.7502945 172.6875,40.7035823 172.6875,42.7738948 C172.6875,44.8702489 172.110352,46.8386734 170.956055,48.6791682 C169.801758,50.519663 168.111979,51.9363297 165.886719,52.9291682 L104.094727,81.168426 C100.685221,82.7068375 97.5511068,83.8378596 94.6923828,84.5614924 C91.8336589,85.2851252 89.0403646,85.6261083 86.3125,85.5844416 Z M86.3125,73.4975276 C88.3196615,73.4975276 90.3541667,73.2239273 92.4160156,72.6767268 C94.4778646,72.1295263 96.8151042,71.2631526 99.4277344,70.0776057 L155.225586,44.7045588 C156.217773,44.2579443 156.713867,43.6143896 156.713867,42.7738948 C156.713867,41.9679052 156.217773,41.3376969 155.225586,40.8832698 L99.4277344,15.5092463 C96.8151042,14.3236995 94.4778646,13.4573258 92.4160156,12.9101252 C90.3541667,12.3629247 88.3196615,12.0893245 86.3125,12.0893245 C84.313151,12.0893245 82.2911784,12.3629247 80.246582,12.9101252 C78.2019857,13.4573258 75.8691406,14.3236995 73.2480469,15.5092463 L17.4619141,40.8832698 C16.4703776,41.3376969 15.9746094,41.9679052 15.9746094,42.7738948 C15.9746094,43.6143896 16.4703776,44.2579443 17.4619141,44.7045588 L73.2480469,70.0776057 C75.8691406,71.2631526 78.2019857,72.1295263 80.246582,72.6767268 C82.2911784,73.2239273 84.313151,73.4975276 86.3125,73.4975276 Z M24.5693359,89.2240901 L24.5693359,56.5219416 L36.4775391,56.5219416 L36.4775391,89.2240901 C36.4775391,92.3901057 37.6546224,95.4348648 40.0087891,98.3583674 C42.3629557,101.28187 45.7311198,103.888315 50.1132812,106.177703 C54.4954427,108.467091 59.7514648,110.28008 65.8813477,111.616668 C72.0112305,112.953257 78.8216146,113.621551 86.3125,113.621551 C93.8450521,113.621551 100.667806,112.953257 106.780762,111.616668 C112.893717,110.28008 118.141276,108.467091 122.523438,106.177703 C126.905599,103.888315 130.282389,101.28187 132.653809,98.3583674 C135.025228,95.4348648 136.210938,92.3901057 136.210938,89.2240901 L136.210938,56.5219416 L148.118164,56.5219416 L148.118164,89.2240901 C148.118164,94.1654963 146.628092,98.7960302 143.647949,103.115692 C140.667806,107.435353 136.447754,111.22702 130.987793,114.490692 C125.527832,117.754364 119.013346,120.302052 111.444336,122.133758 C103.875326,123.965464 95.4980469,124.881317 86.3125,124.881317 C77.1347656,124.881317 68.7698568,123.965464 61.2177734,122.133758 C53.6656901,120.302052 47.1512044,117.754364 41.6743164,114.490692 C36.1974284,111.22702 31.9773763,107.435353 29.0141602,103.115692 C26.050944,98.7960302 24.5693359,94.1654963 24.5693359,89.2240901 Z M86.5283203,50.7006526 C84.1748047,50.7006526 81.9236654,50.3595068 79.7749023,49.6772151 C77.6261393,48.9949234 75.8754883,48.0614924 74.5229492,46.8769221 C73.1704102,45.6923518 72.4941406,44.324676 72.4941406,42.7738948 C72.4941406,41.2569677 73.1723633,39.9185888 74.5288086,38.7587581 C75.8852539,37.5989273 77.6378581,36.6863297 79.7866211,36.0209651 C81.9353841,35.3556005 84.1826172,35.0229182 86.5283203,35.0229182 C88.9007161,35.0229182 91.1526693,35.3536474 93.2841797,36.0151057 C95.4156901,36.676564 97.1492513,37.5891617 98.4848633,38.7528987 C99.8204753,39.9166357 100.488281,41.2569677 100.488281,42.7738948 C100.488281,44.324676 99.8204753,45.6923518 98.4848633,46.8769221 C97.1492513,48.0614924 95.4174805,48.9949234 93.2895508,49.6772151 C91.1616211,50.3595068 88.9078776,50.7006526 86.5283203,50.7006526 Z M50.0986328,65.871551 L40.9189453,60.9975276 L81.1337891,40.1986995 L85.2236328,47.4731135 L50.0986328,65.871551 Z M40.9189453,126.989715 L40.9189453,61.2641291 L50.0986328,65.871551 L50.0986328,127.000457 L40.9189453,126.989715 Z M35.4423828,128.468231 C35.4423828,125.819142 36.2431641,123.693979 37.8447266,122.092742 C39.4462891,120.491505 41.5716146,119.690887 44.2207031,119.690887 L46.7333984,119.690887 C49.383138,119.690887 51.5086263,120.491505 53.1098633,122.092742 C54.7111003,123.693979 55.5117188,125.819142 55.5117188,128.468231 L55.5117188,145.22702 C55.5117188,147.876108 54.7111003,150.001434 53.1098633,151.602996 C51.5086263,153.204559 49.383138,154.00534 46.7333984,154.00534 L44.2207031,154.00534 C41.5716146,154.00534 39.4462891,153.204559 37.8447266,151.602996 C36.2431641,150.001434 35.4423828,147.876108 35.4423828,145.22702 L35.4423828,128.468231 Z" id="Shape"></path>
        </g>
    </g>
</svg>